<svg xmlns="http://www.w3.org/2000/svg" id="kitewheel-logo-footer" viewBox="0 0 214.001 39.871"><defs><style>.cls-1{fill:#40475a}</style></defs><path id="l_1_" d="M6044.313 96.685c0 1.462.437 2.043 1.364 2.043a3.326 3.326 0 0 0 1.411-.292l1.412 4.917a12.915 12.915 0 0 1-4.676.877c-4.091 0-6.426-2.433-6.426-6.913V67.38l6.914-.78z" class="cls-1" transform="translate(-5834.5 -64.362)"/><path id="e_3_" d="M5220.518 388.072H5204.4c.487 4.964 2.822 6.426 6.134 6.426a10.458 10.458 0 0 0 6.28-2.238l2.874 3.9a15.216 15.216 0 0 1-9.783 3.505c-8.274 0-12.608-5.451-12.608-13.534 0-7.79 4.187-13.826 11.731-13.826 7.3 0 11.635 4.87 11.635 13.093-.001.872-.099 1.941-.145 2.674zm-6.717-4.624c0-3.9-1.314-6.426-4.626-6.426-2.725 0-4.382 1.848-4.771 6.718h9.4z" class="cls-1" transform="translate(-5022.633 -359.788)"/><path id="e_2_" d="M4419.519 388.072H4403.4c.488 4.964 2.823 6.426 6.135 6.426a10.462 10.462 0 0 0 6.28-2.238l2.874 3.9a15.214 15.214 0 0 1-9.783 3.505c-8.273 0-12.609-5.451-12.609-13.534 0-7.79 4.188-13.826 11.732-13.826 7.3 0 11.635 4.87 11.635 13.093-.001.872-.097 1.941-.145 2.674zm-6.717-4.624c0-3.9-1.314-6.426-4.626-6.426-2.726 0-4.382 1.848-4.772 6.718h9.4z" class="cls-1" transform="translate(-4248.554 -359.788)"/><path id="Path_198" d="M3625.512 86.11v18.79h-6.912V87.28c0-2.971-1.12-3.8-2.823-3.8-1.946 0-3.552 1.314-4.963 3.552V104.9h-6.914V68.829l6.914-.729v13.923a9.4 9.4 0 0 1 7.5-3.7c4.473 0 7.198 2.921 7.198 7.787z" class="cls-1" data-name="Path 198" transform="translate(-3482.783 -65.811)"/><path id="Path_199" d="M2462.07 421.2l-3.7-19.617-3.7 19.617h-8.324l-5.649-25.8h6.963l3.163 20.689 4.285-20.689h6.913l3.844 20.689 3.505-20.689h6.621l-5.5 25.8z" class="cls-1" data-name="Path 199" transform="translate(-2358.675 -382.112)"/><path id="e_1_" d="M1706.419 388.072H1690.3c.487 4.964 2.823 6.426 6.133 6.426a10.462 10.462 0 0 0 6.281-2.238l2.873 3.9a15.215 15.215 0 0 1-9.783 3.505c-8.274 0-12.609-5.451-12.609-13.534 0-7.79 4.188-13.826 11.732-13.826 7.3 0 11.635 4.87 11.635 13.093.002.872-.095 1.941-.143 2.674zm-6.718-4.624c0-3.9-1.314-6.426-4.625-6.426-2.726 0-4.382 1.848-4.772 6.718h9.4z" class="cls-1" transform="translate(-1626.632 -359.788)"/><path id="t_1_" d="M1116.642 233.856a12.2 12.2 0 0 1-6.718 2c-5.353-.047-8.082-3.115-8.082-8.859v-12.855H1098v-4.87h3.845v-5.646l6.913-.827v6.476h5.938l-.682 4.87h-5.256v12.707c0 2.531.827 3.505 2.581 3.505a5.676 5.676 0 0 0 2.92-.924z" class="cls-1" transform="translate(-1061.099 -195.984)"/><path id="i_1_" d="M770.322 4.04a4.215 4.215 0 0 1-8.422 0 4.215 4.215 0 0 1 8.422 0zm-7.642 35.048v-25.8h6.913v25.8z" class="cls-1" transform="translate(-736.295)"/><path id="Path_200" d="M220.105 730.581l.057-.081-7.232.383-.03.04 8.324 14.115h7.837z" data-name="Path 200" transform="translate(-205.745 -705.95)" fill="#ff5100"/><path id="Path_201" d="M229.2 395.4h-7.155l-8.245 11.645 7.232-.383z" data-name="Path 201" transform="translate(-206.615 -382.112)" fill="#ff8300"/><path id="k_1_" d="M0 103.45h6.913V66.6L0 67.38z" class="cls-1" transform="translate(0 -64.362)"/></svg>